<?xml version="1.0" encoding="utf-8"?>
<!-- Generator: Adobe Illustrator 25.4.1, SVG Export Plug-In . SVG Version: 6.00 Build 0)  -->
<svg version="1.1" id="Calque_1" xmlns="http://www.w3.org/2000/svg" xmlns:xlink="http://www.w3.org/1999/xlink" x="0px" y="0px"
	 viewBox="0 0 500 500" style="enable-background:new 0 0 500 500;" xml:space="preserve">
<style type="text/css">
	.st0{fill:#E1F1FB;}
	.st1{fill:none;stroke:#000000;stroke-width:3;stroke-miterlimit:10;}
	.st2{fill:none;stroke:#000000;stroke-width:2;stroke-miterlimit:10;}
	.st3{stroke:#000000;stroke-width:3;stroke-miterlimit:10;}
	.st4{stroke:#000000;stroke-miterlimit:10;}
	.st5{fill:#C8DEFF;}
</style>
<g>
	<path class="st0" d="M231.4,352.4c-136.7-2.3-136.7-205.7,0-208C368.1,146.8,368.1,350.1,231.4,352.4z"/>
</g>
<path class="st1" d="M245.1,319.4"/>
<path class="st1" d="M245.1,180.4"/>
<g>
	<line class="st2" x1="350.3" y1="277.8" x2="386.2" y2="284.1"/>
	<line class="st2" x1="395.1" y1="285.7" x2="405.9" y2="287.6"/>
</g>
<g>
	<line class="st2" x1="265.7" y1="132.2" x2="274" y2="96.6"/>
	<line class="st2" x1="276" y1="87.9" x2="278.5" y2="77.2"/>
</g>
<g>
	<line class="st2" x1="266.2" y1="366.9" x2="272.6" y2="402.8"/>
	<line class="st2" x1="274.1" y1="411.7" x2="276" y2="422.5"/>
</g>
<line class="st2" x1="387.1" y1="248.9" x2="369.1" y2="248.9"/>
<line class="st2" x1="360.1" y1="248.9" x2="355.1" y2="248.9"/>
<g>
	<line class="st2" x1="350.3" y1="221.6" x2="386.3" y2="215.3"/>
	<line class="st2" x1="395.1" y1="213.7" x2="406" y2="211.8"/>
</g>
<line class="st2" x1="376.7" y1="174.7" x2="359.8" y2="180.9"/>
<line class="st2" x1="351.4" y1="184" x2="346.7" y2="185.7"/>
<g>
	<line class="st2" x1="327.1" y1="163.9" x2="350.6" y2="136"/>
	<line class="st2" x1="356.4" y1="129.1" x2="363.4" y2="120.6"/>
</g>
<line class="st2" x1="319.2" y1="116.6" x2="310.2" y2="132.2"/>
<line class="st2" x1="305.7" y1="140" x2="303.2" y2="144.3"/>
<line class="st2" x1="310.5" y1="390.1" x2="304.4" y2="373.2"/>
<line class="st2" x1="301.3" y1="364.7" x2="299.6" y2="360"/>
<g>
	<line class="st2" x1="321.4" y1="340.5" x2="349.3" y2="363.9"/>
	<line class="st2" x1="356.2" y1="369.7" x2="364.6" y2="376.8"/>
</g>
<line class="st2" x1="368.7" y1="332.5" x2="353.1" y2="323.5"/>
<line class="st2" x1="345.3" y1="319" x2="341" y2="316.5"/>
<path class="st3" d="M147.6,351.9"/>
<path class="st4" d="M209.6,186.9"/>
<path class="st4" d="M159.6,310.9"/>
<path class="st5" d="M215.7,276.8"/>
<path class="st4" d="M150.6,247.4c0.5,0.1,0.9-0.4,0.8-0.9c-0.6-2.3-3.1-7.8-11.8-7c-11,1-29.1,17.8-32,36c-3,19,8,31,13,34
	c5.8,3.5,26,13,55-8c28.7-20.8,43.7-71.9,47-81c0.2-0.6,0.5-0.9,0.5-0.8c-1.5,2.8-1.8,10.5-2.5,17.8c-0.8,7.9-3.8,40-2.3,47.6
	c0.1,0.7,1.2,0.9,1.5,0.2c2.9-5.1,6.9-12.9,9.8-17.9c8.1-13.5,8.9-14.1,16.8-27.7c0,0,0,0,0.1,0c0,0,0,0,0,0.1l-1.9,10.6
	c0,0-5,29,6,40c6.6,6.6,15.8,5.6,19.1,3.1c2.9-2.1,2.9-2.1-0.1-1.4c-12.7,3.2-20-3.9-20-27.8c0-27.8,14.7-47.1,17.5-50.4
	c0.3-0.3,0.2-0.8-0.1-1l0,0c-1.9-1.5-4.6-1.3-6.4,0.5l0,0l0,0c-4,4-7,8-11,14c-5.4,8.1-7.8,12.8-13,21c-3.7,5.8-7.3,14.2-11,20l0,0
	c0,0,1-7.9,1-8c0.8-7.1,1-11,2-21c1.2-12.5,3.5-25.2,5-37.6c0,0,0-0.2-0.1-0.3s-0.2-0.1-0.3-0.1h-4.6c-0.6,0-1.2,0.4-1.4,0.9
	c-11.2,24.6-17.6,47.1-30.6,71.1c-6,10-8,12-16,21c0,0-12,13-29,16s-27-5-27-5s-16.2-10.5-5-37c1.2-2.8,6-15.4,18.8-19.8
	C143.2,247,147.6,247.1,150.6,247.4z"/>
<path d="M292.1,181.4c-24.4-22.1-56-22-64-22c-5.7,0,5.5,1.2,9,10c2,5,2,11,2,24c0,3,8,2,8,0c0-12-2-23,2-25c5.5-2.8,21.9,6.1,35,21
	c20.5,23.3,21.2,50.5,21,59c0.2,8.5-0.5,35.7-21,59c-13.1,14.9-29.5,23.8-35,21c-4-2-2-13-2-25c0-2-8-3-8,0c0,13,0,19-2,24
	c-3.5,8.8-14.7,10-9,10c8,0,39.6,0.1,64-22c26.8-24.3,29.2-54.9,29.1-67C321.3,236.3,318.9,205.8,292.1,181.4z"/>
</svg>
